Coordinates
nRows=8
nColumns=38

# SIMM Motion File Header:
name Coordinates
datacolumns 38
datarows 8
otherdata 1
range 1.95400000000000000000 1.96099999999999990000

Units are S.I. units (second, meters, Newtons, ...)
Angles are in degrees.

endheader
time	pelvis_tilt	pelvis_list	pelvis_rotation	pelvis_tx	pelvis_ty	pelvis_tz	hip_flexion_r	hip_adduction_r	hip_rotation_r	knee_angle_r	ankle_angle_r	subtalar_angle_r	mtp_angle_r	hip_flexion_l	hip_adduction_l	hip_rotation_l	knee_angle_l	ankle_angle_l	subtalar_angle_l	mtp_angle_l	lumbar_extension	lumbar_bending	lumbar_rotation	arm_flex_r	arm_add_r	arm_rot_r	elbow_flex_r	pro_sup_r	wrist_flex_r	wrist_dev_r	arm_flex_l	arm_add_l	arm_rot_l	elbow_flex_l	pro_sup_l	wrist_flex_l	wrist_dev_l
      1.95400000000000000000	    -11.94077199893815500000	      0.15920344553703877000	     -2.45923511998167490000	      0.98970531296390230000	      1.04763496700537020000	     -0.35028413257996016000	     31.41621465519755700000	      4.45451698544275580000	      1.68206659372295910000	    -10.36653189217319600000	      4.78989217631299090000	      0.00000000000000000000	      0.00000000000000000000	      3.05101802084161200000	      5.68570703643481590000	      2.21775197656179480000	    -52.99412722907346300000	    -15.34530445482532500000	      0.00000000000000000000	      0.00000000000000000000	      1.19173441924518000000	      2.10363980107649700000	     -5.71764576123766850000	    -48.10774954708575300000	    -19.03872690896130800000	    -17.92039085682334900000	    110.29032563311651000000	    102.05654890658360000000	      0.00000000000000000000	      0.00000000000000000000	    -32.10029829768766500000	    -15.25933612703949600000	     -5.56823414700582210000	    130.13124441919456000000	     99.93643444463840800000	      0.00000000000000000000	      0.00000000000000000000
      1.95499999999999980000	    -11.90492635693221900000	      0.15056443615274492000	     -2.47100367338624370000	      0.98957212911453973000	      1.04705258424275520000	     -0.35025012982538456000	     31.35585219840446300000	      4.48539677978283800000	      1.65018650640052920000	    -10.46721987118933900000	      4.79371183298898450000	     -0.00000000000000000014	     -0.00000000000000000243	      3.24338569918498900000	      5.63630679208089890000	      2.09703262520509260000	    -53.56766674401050200000	    -15.24488221856495700000	      0.00000000000000000060	     -0.00000000000000000107	      1.13595295746322370000	      2.12160274597916660000	     -5.65554028758342040000	    -48.01371438288465800000	    -19.07462087986522900000	    -17.91097193824988700000	    110.29308721981184000000	    102.05087117656032000000	     -0.00000000000000000010	      0.00000000000000000021	    -32.13729157510766000000	    -15.26556935543630700000	     -5.55409062306727020000	    129.99862518505643000000	     99.99554771435433100000	      0.00000000000000000015	      0.00000000000000000027
      1.95600000000000000000	    -11.86993882358480700000	      0.14183293627578827000	     -2.48196269246391310000	      0.98943863059579773000	      1.04645966079112340000	     -0.35021480257513388000	     31.29600246719823900000	      4.51571344365833130000	      1.61783205509570350000	    -10.57184689815059800000	      4.79480606328985900000	     -0.00000000000000000109	     -0.00000000000000000948	      3.43769930126949230000	      5.58411996132415830000	      1.97448491112778270000	    -54.14040604513709100000	    -15.14214969282431300000	      0.00000000000000000118	     -0.00000000000000000061	      1.08144109846880680000	      2.13914164746148620000	     -5.59390212590935130000	    -47.91790728524243500000	    -19.11156243479597800000	    -17.89984006926713900000	    110.29404735832446000000	    102.04383138763859000000	     -0.00000000000000000058	      0.00000000000000000155	    -32.17483555566692400000	    -15.27182571797547800000	     -5.54065290544630870000	    129.86468045058186000000	    100.05553586194672000000	      0.00000000000000000113	      0.00000000000000000119
      1.95699999999999990000	    -11.83589949711422300000	      0.13293918843532346000	     -2.49218057325363370000	      0.98930469685475375000	      1.04585619163070010000	     -0.35017812273118648000	     31.23686596019957000000	      4.54551777419966020000	      1.58426527914240610000	    -10.68053111114701400000	      4.78918583986892530000	     -0.00000000000000000176	     -0.00000000000000001738	      3.63402066609139630000	      5.52909324956900150000	      1.85026304540944090000	    -54.71227848559188800000	    -15.03685075980261500000	      0.00000000000000000089	      0.00000000000000000090	      1.02829025025108380000	      2.15635845985903090000	     -5.53264197534633870000	    -47.82033469795230500000	    -19.14955555100505100000	    -17.88704189197786200000	    110.29318317516271000000	    102.03541447958146000000	     -0.00000000000000000077	      0.00000000000000000413	    -32.21289472904733500000	    -15.27808469636610800000	     -5.52786624603227490000	    129.72936113769498000000	    100.11637071173277000000	      0.00000000000000000265	      0.00000000000000000134
      1.95800000000000000000	    -11.80283924498743200000	      0.12386768990241626000	     -2.50161152316812800000	      0.98917034283859850000	      1.04524212051462410000	     -0.35014017948516774000	     31.17851259042973300000	      4.57480350479537720000	      1.54941198936368480000	    -10.79329215200908200000	      4.77735118561088700000	     -0.00000000000000000228	     -0.00000000000000002270	      3.83232900562960490000	      5.47125613358640810000	      1.72466514730036090000	    -55.28319587025206500000	    -14.92868910619044900000	     -0.00000000000000000010	      0.00000000000000000389	      0.97654612056239409000	      2.17327899550050850000	     -5.47177902689057570000	    -47.72102109064195500000	    -19.18858001436358100000	    -17.87262274409062700000	    110.29049220015339000000	    102.02561141312427000000	     -0.00000000000000000088	      0.00000000000000000627	    -32.25145766059917200000	    -15.28436013915458400000	     -5.51568784170699280000	    129.59265584886541000000	    100.17799579737928000000	      0.00000000000000000334	      0.00000000000000000199
      1.95899999999999990000	    -11.77081567127121500000	      0.11459003620370850000	     -2.51022815619807420000	      0.98903554121541826000	      1.04461737307554500000	     -0.35010104742366266000	     31.12106856347247300000	      4.60358243633694730000	      1.51309208570568620000	    -10.91019568692613500000	      4.75922472694384440000	     -0.00000000000000000361	     -0.00000000000000002784	      4.03264051760386180000	      5.41062608826149920000	      1.59796733296579620000	    -55.85308179524995600000	    -14.81737961895096900000	     -0.00000000000000000118	      0.00000000000000000663	      0.92628054718050823000	      2.18994867433113250000	     -5.41131274726439320000	    -47.61999216946819000000	    -19.22861776903464200000	    -17.85663330943447800000	    110.28596953302016000000	    102.01441392298007000000	     -0.00000000000000000108	      0.00000000000000000874	    -32.29051000802954300000	    -15.29065930342976100000	     -5.50406948258016460000	    129.45454372290988000000	    100.24035589185850000000	      0.00000000000000000354	      0.00000000000000000174
      1.96000000000000000000	    -11.73985568192784400000	      0.10507298826593232000	     -2.51800559397521220000	      0.98890026798508990000	      1.04398191847320710000	     -0.35006079899929488000	     31.06463273111797100000	      4.63187502614739620000	      1.47515224885776370000	    -11.03131783019358500000	      4.73493310569784320000	     -0.00000000000000000667	     -0.00000000000000003304	      4.23493735639187290000	      5.34722040028857390000	      1.47044142051167380000	    -56.42185626447167800000	    -14.70265200065341000000	     -0.00000000000000000137	      0.00000000000000000764	      0.87752854310095185000	      2.20641815282253040000	     -5.35123842392782570000	    -47.51726912172441800000	    -19.26964938823045200000	    -17.83912695120742600000	    110.27961261348197000000	    102.00181473318600000000	     -0.00000000000000000149	      0.00000000000000001113	    -32.33002925759869600000	    -15.29699047621738500000	     -5.49296125065801990000	    129.31500271847730000000	    100.30339197079383000000	      0.00000000000000000387	      0.00000000000000000120
      1.96099999999999990000	    -11.70997343889793800000	      0.09526948350435075800	     -2.52489613122833530000	      0.98876448960047625000	      1.04333575159469730000	     -0.35001954025564180000	     31.00929607900842900000	      4.65970455500554340000	      1.43541296564291440000	    -11.15674609858379500000	      4.70464115779841840000	     -0.00000000000000000867	     -0.00000000000000003934	      4.43919384574324650000	      5.28104741172063270000	      1.34237854546207650000	    -56.98945031468596100000	    -14.58425198707226600000	      0.00000000000000000067	      0.00000000000000000836	      0.83030819913365261000	      2.22275321363309340000	     -5.29157325387288060000	    -47.41287055588239200000	    -19.31165416302137300000	    -17.82015995439239100000	    110.27141926047155000000	    101.98780780945923000000	     -0.00000000000000000220	      0.00000000000000001350	    -32.36998504802388500000	    -15.30336174638764400000	     -5.48231081370650660000	    129.17400698657949000000	    100.36704232048497000000	      0.00000000000000000385	      0.00000000000000000144
